<svg width="81" height="61" viewBox="0 0 81 61" fill="none" xmlns="http://www.w3.org/2000/svg">
<path fill-rule="evenodd" clip-rule="evenodd" d="M68.2535 0.235262C61.7088 1.06671 57.6605 2.45118 53.4503 5.29836C49.6437 7.87171 35.4963 22.6437 35.4963 24.0443C35.4963 25.0169 64.7451 40.8443 65.3739 40.2115C66.3453 39.2351 81.3496 0.970067 80.9068 0.600363C80.2178 0.0258658 71.8123 -0.21728 68.2535 0.235262ZM65.5975 25.0031C66.9809 26.0462 66.6397 26.261 60.6644 28.118C57.1334 29.2148 53.6596 30.1122 52.9442 30.1122C52.2288 30.1122 49.5352 29.0092 46.9583 27.6616C42.3663 25.2593 42.3181 25.2017 44.5328 24.763C45.7753 24.5168 50.6889 24.2184 55.4518 24.0995C62.1238 23.9331 64.4529 24.1402 65.5975 25.0031Z" fill="#01365F"/>
<path fill-rule="evenodd" clip-rule="evenodd" d="M15.0255 43.6088L0 59.8574L3.41325 60.3763C5.29013 60.6615 15.6414 60.7214 26.4155 60.5082C48.4328 60.0736 52.1013 59.4143 56.3003 55.1381C57.6346 53.7787 59.6559 50.924 60.7927 48.7931L62.8581 44.9204L55.18 40.7519C50.9563 38.4594 47.4196 36.6607 47.32 36.7548C47.2197 36.8481 48.2921 40.3984 49.702 44.6435C51.1127 48.8887 52.0983 52.3616 51.8925 52.3616C50.2693 52.3616 47.7241 49.3969 41.4252 40.1708C37.2105 33.9972 33.2831 29.0542 32.0985 28.4329L30.0517 27.3602L15.0255 43.6088Z" fill="#01365F"/>
</svg>
